<?xml version="1.0" encoding="UTF-8"?>
<svg enable-background="new 0 0 113.1 35" version="1.1" viewBox="0 0 113.1 35" xml:space="preserve" xmlns="http://www.w3.org/2000/svg">
<style type="text/css">.st0{fill:#34495e;}</style>
<polygon class="st0" points="105 0 91.4 16.4 91.4 2.2 85.2 18.8 85.2 18.8 85.2 35 91.4 35 91.4 24.1 95.4 19.9 105.9 35 113.1 35 99.3 15.5 112.3 0"/>
<polygon class="st0" points="89.8 0 76.5 35 72.2 35 62.3 9.6 62.3 35 56.4 35 56.4 0 64.3 0 74.4 26.9 84.5 0"/>
<polygon class="st0" points="32 21 21.2 31.8 10.4 21 7.1 21 21.2 35 35.2 21"/>
<polygon class="st0" points="19.8 13.8 12.9 20.7 21.2 29 31.8 18.4 41.2 18.4 42.3 17.2 41.2 16.1 30.8 16.1 21.2 25.8 16.1 20.7 23 13.8"/>
<polygon class="st0" points="10.6 16.7 1.2 16.7 0 17.8 1.2 19 11.5 19 21.2 9.3 26.2 14.4 19.3 21.3 22.6 21.3 29.5 14.4 21.2 6.1"/>
<polygon class="st0" points="21.2 0 7.1 14.1 10.4 14.1 21.2 3.3 32 14.1 35.2 14.1"/>
</svg>
